<?xml version="1.0"?>
<!-- Created by MetaPost 2.00 on 2018.08.28:1219 -->
<svg version="1.1" xmlns="http://www.w3.org/2000/svg" xmlns:xlink="http://www.w3.org/1999/xlink" width="100.000000" height="100.000000" viewBox="0 0 100.000000 100.000000">
<!-- Original BoundingBox: 0.000000 0.000000 100.000000 100.000000 -->
  <path d="M0.000000 100.000000L0.000000 -0.000000L100.000000 -0.000000L0.000000 -0.000000" style="stroke:rgb(0.000000%,0.000000%,0.000000%); stroke-width: 0.000000;stroke-linecap: round;stroke-linejoin: round;stroke-miterlimit: 10.000000;fill: none;"></path>
  <path d="M5.000000 95.000000C9.993607 95.357437,15.006393 95.357437,20.000000 95.000000C36.761139 93.800262,53.219040 88.599152,70.000000 90.000000C76.892975 90.575409,83.647171 92.263962,90.000000 95.000000" style="stroke:rgb(0.000000%,0.000000%,0.000000%); stroke-width: 1.992523;stroke-linecap: round;stroke-linejoin: round;stroke-miterlimit: 10.000000;fill: none;"></path>
  <path d="M5.000000 10.000000C9.993607 10.357437,15.006393 10.357437,20.000000 10.000000C36.761139 8.800262,53.219040 3.599152,70.000000 5.000000C76.892975 5.575409,83.647171 7.263962,90.000000 10.000000" style="stroke:rgb(0.000000%,0.000000%,0.000000%); stroke-width: 1.992523;stroke-linecap: round;stroke-linejoin: round;stroke-miterlimit: 10.000000;fill: none;"></path>
  <path d="M5.000000 95.000000L5.000000 10.000000" style="stroke:rgb(0.000000%,0.000000%,0.000000%); stroke-width: 1.992523;stroke-linecap: round;stroke-linejoin: round;stroke-miterlimit: 10.000000;fill: none;"></path>
  <path d="M90.000000 95.000000L90.000000 10.000000" style="stroke:rgb(0.000000%,0.000000%,0.000000%); stroke-width: 1.992523;stroke-linecap: round;stroke-linejoin: round;stroke-miterlimit: 10.000000;fill: none;"></path>
  <path d="M20.000000 80.000000L20.000000 30.000000" style="stroke:rgb(0.000000%,0.000000%,0.000000%); stroke-width: 3.985046;stroke-linecap: round;stroke-linejoin: round;stroke-miterlimit: 10.000000;fill: none;"></path>
  <path d="M32.000000 28.000000L32.000000 78.000000C34.584595 77.039841,37.267639 76.369064,40.000000 76.000000C43.318268 75.551788,46.681732 75.551788,50.000000 76.000000" style="stroke:rgb(0.000000%,0.000000%,0.000000%); stroke-width: 3.985046;stroke-linecap: round;stroke-linejoin: round;stroke-miterlimit: 10.000000;fill: none;"></path>
  <path d="M60.000000 25.000000L60.000000 75.000000C66.270340 79.164795,74.776031 76.802109,78.000000 70.000000C83.489059 58.418900,71.860687 46.144501,60.000000 51.000000" style="stroke:rgb(0.000000%,0.000000%,0.000000%); stroke-width: 3.985046;stroke-linecap: round;stroke-linejoin: round;stroke-miterlimit: 10.000000;fill: none;"></path>
  <path d="M60.000000 25.000000C65.548691 22.734283,71.920471 24.858200,75.000000 30.000000C79.981628 38.317703,74.643143 48.994690,65.000000 50.000000" style="stroke:rgb(0.000000%,0.000000%,0.000000%); stroke-width: 3.985046;stroke-linecap: round;stroke-linejoin: round;stroke-miterlimit: 10.000000;fill: none;"></path>
</svg>
