<?xml version="1.0"?>
<!-- Created by MetaPost 2.00 on 2018.08.28:1128 -->
<svg version="1.1" xmlns="http://www.w3.org/2000/svg" xmlns:xlink="http://www.w3.org/1999/xlink" width="192.049820" height="64.099640" viewBox="0 0 192.049820 64.099640">
<!-- Original BoundingBox: -0.049820 -0.049820 192.000000 64.049820 -->
  <path d="M12.000000 59.000000L25.000000 59.000000L25.000000 44.000000L39.000000 44.000000L39.000000 59.000000L52.000000 59.000000L52.000000 32.000000L59.000000 32.000000L32.000000 5.000000L5.000000 32.000000L12.000000 32.000000Z" style="stroke:rgb(0.000000%,0.000000%,0.000000%); stroke-width: 1.992523;stroke-linecap: round;stroke-linejoin: round;stroke-miterlimit: 10.000000;fill: none;"></path>
  <path d="M74.000000 39.000000L78.000000 39.000000L78.000000 38.000000L74.000000 38.000000Z" style="stroke:rgb(0.000000%,0.000000%,0.000000%); stroke-width: 1.992523;stroke-linecap: round;stroke-linejoin: round;stroke-miterlimit: 10.000000;fill: none;"></path>
  <path d="M84.000000 39.000000L88.000000 39.000000L88.000000 38.000000L84.000000 38.000000Z" style="stroke:rgb(0.000000%,0.000000%,0.000000%); stroke-width: 1.992523;stroke-linecap: round;stroke-linejoin: round;stroke-miterlimit: 10.000000;fill: none;"></path>
  <path d="M94.000000 39.000000L98.000000 39.000000L98.000000 38.000000L94.000000 38.000000Z" style="stroke:rgb(0.000000%,0.000000%,0.000000%); stroke-width: 1.992523;stroke-linecap: round;stroke-linejoin: round;stroke-miterlimit: 10.000000;fill: none;"></path>
  <path d="M104.000000 39.000000L108.000000 39.000000L108.000000 38.000000L104.000000 38.000000Z" style="stroke:rgb(0.000000%,0.000000%,0.000000%); stroke-width: 1.992523;stroke-linecap: round;stroke-linejoin: round;stroke-miterlimit: 10.000000;fill: none;"></path>
  <path d="M114.000000 39.000000L118.000000 39.000000L118.000000 38.000000L114.000000 38.000000Z" style="stroke:rgb(0.000000%,0.000000%,0.000000%); stroke-width: 1.992523;stroke-linecap: round;stroke-linejoin: round;stroke-miterlimit: 10.000000;fill: none;"></path>
  <path d="M74.000000 32.000000L78.000000 32.000000L78.000000 31.000000L74.000000 31.000000Z" style="stroke:rgb(0.000000%,0.000000%,0.000000%); stroke-width: 1.992523;stroke-linecap: round;stroke-linejoin: round;stroke-miterlimit: 10.000000;fill: none;"></path>
  <path d="M84.000000 32.000000L88.000000 32.000000L88.000000 31.000000L84.000000 31.000000Z" style="stroke:rgb(0.000000%,0.000000%,0.000000%); stroke-width: 1.992523;stroke-linecap: round;stroke-linejoin: round;stroke-miterlimit: 10.000000;fill: none;"></path>
  <path d="M94.000000 32.000000L98.000000 32.000000L98.000000 31.000000L94.000000 31.000000Z" style="stroke:rgb(0.000000%,0.000000%,0.000000%); stroke-width: 1.992523;stroke-linecap: round;stroke-linejoin: round;stroke-miterlimit: 10.000000;fill: none;"></path>
  <path d="M104.000000 32.000000L108.000000 32.000000L108.000000 31.000000L104.000000 31.000000Z" style="stroke:rgb(0.000000%,0.000000%,0.000000%); stroke-width: 1.992523;stroke-linecap: round;stroke-linejoin: round;stroke-miterlimit: 10.000000;fill: none;"></path>
  <path d="M114.000000 32.000000L118.000000 32.000000L118.000000 31.000000L114.000000 31.000000Z" style="stroke:rgb(0.000000%,0.000000%,0.000000%); stroke-width: 1.992523;stroke-linecap: round;stroke-linejoin: round;stroke-miterlimit: 10.000000;fill: none;"></path>
  <path d="M74.000000 25.000000L78.000000 25.000000L78.000000 24.000000L74.000000 24.000000Z" style="stroke:rgb(0.000000%,0.000000%,0.000000%); stroke-width: 1.992523;stroke-linecap: round;stroke-linejoin: round;stroke-miterlimit: 10.000000;fill: none;"></path>
  <path d="M84.000000 25.000000L88.000000 25.000000L88.000000 24.000000L84.000000 24.000000Z" style="stroke:rgb(0.000000%,0.000000%,0.000000%); stroke-width: 1.992523;stroke-linecap: round;stroke-linejoin: round;stroke-miterlimit: 10.000000;fill: none;"></path>
  <path d="M94.000000 25.000000L98.000000 25.000000L98.000000 24.000000L94.000000 24.000000Z" style="stroke:rgb(0.000000%,0.000000%,0.000000%); stroke-width: 1.992523;stroke-linecap: round;stroke-linejoin: round;stroke-miterlimit: 10.000000;fill: none;"></path>
  <path d="M104.000000 25.000000L108.000000 25.000000L108.000000 24.000000L104.000000 24.000000Z" style="stroke:rgb(0.000000%,0.000000%,0.000000%); stroke-width: 1.992523;stroke-linecap: round;stroke-linejoin: round;stroke-miterlimit: 10.000000;fill: none;"></path>
  <path d="M114.000000 25.000000L118.000000 25.000000L118.000000 24.000000L114.000000 24.000000Z" style="stroke:rgb(0.000000%,0.000000%,0.000000%); stroke-width: 1.992523;stroke-linecap: round;stroke-linejoin: round;stroke-miterlimit: 10.000000;fill: none;"></path>
  <path d="M74.000000 18.000000L78.000000 18.000000L78.000000 17.000000L74.000000 17.000000Z" style="stroke:rgb(0.000000%,0.000000%,0.000000%); stroke-width: 1.992523;stroke-linecap: round;stroke-linejoin: round;stroke-miterlimit: 10.000000;fill: none;"></path>
  <path d="M84.000000 18.000000L88.000000 18.000000L88.000000 17.000000L84.000000 17.000000Z" style="stroke:rgb(0.000000%,0.000000%,0.000000%); stroke-width: 1.992523;stroke-linecap: round;stroke-linejoin: round;stroke-miterlimit: 10.000000;fill: none;"></path>
  <path d="M94.000000 18.000000L98.000000 18.000000L98.000000 17.000000L94.000000 17.000000Z" style="stroke:rgb(0.000000%,0.000000%,0.000000%); stroke-width: 1.992523;stroke-linecap: round;stroke-linejoin: round;stroke-miterlimit: 10.000000;fill: none;"></path>
  <path d="M104.000000 18.000000L108.000000 18.000000L108.000000 17.000000L104.000000 17.000000Z" style="stroke:rgb(0.000000%,0.000000%,0.000000%); stroke-width: 1.992523;stroke-linecap: round;stroke-linejoin: round;stroke-miterlimit: 10.000000;fill: none;"></path>
  <path d="M114.000000 18.000000L118.000000 18.000000L118.000000 17.000000L114.000000 17.000000Z" style="stroke:rgb(0.000000%,0.000000%,0.000000%); stroke-width: 1.992523;stroke-linecap: round;stroke-linejoin: round;stroke-miterlimit: 10.000000;fill: none;"></path>
  <path d="M74.000000 11.000000L78.000000 11.000000L78.000000 10.000000L74.000000 10.000000Z" style="stroke:rgb(0.000000%,0.000000%,0.000000%); stroke-width: 1.992523;stroke-linecap: round;stroke-linejoin: round;stroke-miterlimit: 10.000000;fill: none;"></path>
  <path d="M84.000000 11.000000L88.000000 11.000000L88.000000 10.000000L84.000000 10.000000Z" style="stroke:rgb(0.000000%,0.000000%,0.000000%); stroke-width: 1.992523;stroke-linecap: round;stroke-linejoin: round;stroke-miterlimit: 10.000000;fill: none;"></path>
  <path d="M94.000000 11.000000L98.000000 11.000000L98.000000 10.000000L94.000000 10.000000Z" style="stroke:rgb(0.000000%,0.000000%,0.000000%); stroke-width: 1.992523;stroke-linecap: round;stroke-linejoin: round;stroke-miterlimit: 10.000000;fill: none;"></path>
  <path d="M104.000000 11.000000L108.000000 11.000000L108.000000 10.000000L104.000000 10.000000Z" style="stroke:rgb(0.000000%,0.000000%,0.000000%); stroke-width: 1.992523;stroke-linecap: round;stroke-linejoin: round;stroke-miterlimit: 10.000000;fill: none;"></path>
  <path d="M114.000000 11.000000L118.000000 11.000000L118.000000 10.000000L114.000000 10.000000Z" style="stroke:rgb(0.000000%,0.000000%,0.000000%); stroke-width: 1.992523;stroke-linecap: round;stroke-linejoin: round;stroke-miterlimit: 10.000000;fill: none;"></path>
  <path d="M0.000000 64.000000L192.000000 -0.000000" style="stroke:rgb(0.000000%,0.000000%,0.000000%); stroke-width: 0.000000;stroke-linecap: round;stroke-linejoin: round;stroke-miterlimit: 10.000000;fill: none;"></path>
  <path d="M0.000000 64.000000L0.000000 -0.000000" style="stroke:rgb(0.000000%,0.000000%,0.000000%); stroke-width: 0.099625;stroke-linecap: round;stroke-linejoin: round;stroke-miterlimit: 10.000000;fill: none;"></path>
  <path d="M64.000000 64.000000L64.000000 -0.000000" style="stroke:rgb(0.000000%,0.000000%,0.000000%); stroke-width: 0.099625;stroke-linecap: round;stroke-linejoin: round;stroke-miterlimit: 10.000000;fill: none;"></path>
  <path d="M128.000000 64.000000L128.000000 -0.000000" style="stroke:rgb(0.000000%,0.000000%,0.000000%); stroke-width: 0.099625;stroke-linecap: round;stroke-linejoin: round;stroke-miterlimit: 10.000000;fill: none;"></path>
  <path d="M0.000000 64.000000L128.000000 64.000000" style="stroke:rgb(0.000000%,0.000000%,0.000000%); stroke-width: 0.099625;stroke-linecap: round;stroke-linejoin: round;stroke-miterlimit: 10.000000;fill: none;"></path>
  <path d="M0.000000 -0.000000L128.000000 -0.000000" style="stroke:rgb(0.000000%,0.000000%,0.000000%); stroke-width: 0.099625;stroke-linecap: round;stroke-linejoin: round;stroke-miterlimit: 10.000000;fill: none;"></path>
</svg>
