<?xml version="1.0"?>
<!-- Created by MetaPost 2.00 on 2018.09.19:2121 -->
<svg version="1.1" xmlns="http://www.w3.org/2000/svg" xmlns:xlink="http://www.w3.org/1999/xlink" width="320.099640" height="65.992523" viewBox="0 0 320.099640 65.992523">
<!-- Original BoundingBox: -0.049820 -0.996262 320.049820 64.996262 -->
  <path d="M12.000000 59.000000L25.000000 59.000000L25.000000 44.000000L39.000000 44.000000L39.000000 59.000000L52.000000 59.000000L52.000000 32.000000L59.000000 32.000000L32.000000 5.000000L5.000000 32.000000L12.000000 32.000000Z" style="stroke:rgb(0.000000%,0.000000%,0.000000%); stroke-width: 1.992523;stroke-linecap: round;stroke-linejoin: round;stroke-miterlimit: 10.000000;fill: none;"></path>
  <path d="M74.000000 39.000000L78.000000 39.000000L78.000000 38.000000L74.000000 38.000000Z" style="stroke:rgb(0.000000%,0.000000%,0.000000%); stroke-width: 1.992523;stroke-linecap: round;stroke-linejoin: round;stroke-miterlimit: 10.000000;fill: none;"></path>
  <path d="M84.000000 39.000000L88.000000 39.000000L88.000000 38.000000L84.000000 38.000000Z" style="stroke:rgb(0.000000%,0.000000%,0.000000%); stroke-width: 1.992523;stroke-linecap: round;stroke-linejoin: round;stroke-miterlimit: 10.000000;fill: none;"></path>
  <path d="M94.000000 39.000000L98.000000 39.000000L98.000000 38.000000L94.000000 38.000000Z" style="stroke:rgb(0.000000%,0.000000%,0.000000%); stroke-width: 1.992523;stroke-linecap: round;stroke-linejoin: round;stroke-miterlimit: 10.000000;fill: none;"></path>
  <path d="M104.000000 39.000000L108.000000 39.000000L108.000000 38.000000L104.000000 38.000000Z" style="stroke:rgb(0.000000%,0.000000%,0.000000%); stroke-width: 1.992523;stroke-linecap: round;stroke-linejoin: round;stroke-miterlimit: 10.000000;fill: none;"></path>
  <path d="M114.000000 39.000000L118.000000 39.000000L118.000000 38.000000L114.000000 38.000000Z" style="stroke:rgb(0.000000%,0.000000%,0.000000%); stroke-width: 1.992523;stroke-linecap: round;stroke-linejoin: round;stroke-miterlimit: 10.000000;fill: none;"></path>
  <path d="M74.000000 32.000000L78.000000 32.000000L78.000000 31.000000L74.000000 31.000000Z" style="stroke:rgb(0.000000%,0.000000%,0.000000%); stroke-width: 1.992523;stroke-linecap: round;stroke-linejoin: round;stroke-miterlimit: 10.000000;fill: none;"></path>
  <path d="M84.000000 32.000000L88.000000 32.000000L88.000000 31.000000L84.000000 31.000000Z" style="stroke:rgb(0.000000%,0.000000%,0.000000%); stroke-width: 1.992523;stroke-linecap: round;stroke-linejoin: round;stroke-miterlimit: 10.000000;fill: none;"></path>
  <path d="M94.000000 32.000000L98.000000 32.000000L98.000000 31.000000L94.000000 31.000000Z" style="stroke:rgb(0.000000%,0.000000%,0.000000%); stroke-width: 1.992523;stroke-linecap: round;stroke-linejoin: round;stroke-miterlimit: 10.000000;fill: none;"></path>
  <path d="M104.000000 32.000000L108.000000 32.000000L108.000000 31.000000L104.000000 31.000000Z" style="stroke:rgb(0.000000%,0.000000%,0.000000%); stroke-width: 1.992523;stroke-linecap: round;stroke-linejoin: round;stroke-miterlimit: 10.000000;fill: none;"></path>
  <path d="M114.000000 32.000000L118.000000 32.000000L118.000000 31.000000L114.000000 31.000000Z" style="stroke:rgb(0.000000%,0.000000%,0.000000%); stroke-width: 1.992523;stroke-linecap: round;stroke-linejoin: round;stroke-miterlimit: 10.000000;fill: none;"></path>
  <path d="M74.000000 25.000000L78.000000 25.000000L78.000000 24.000000L74.000000 24.000000Z" style="stroke:rgb(0.000000%,0.000000%,0.000000%); stroke-width: 1.992523;stroke-linecap: round;stroke-linejoin: round;stroke-miterlimit: 10.000000;fill: none;"></path>
  <path d="M84.000000 25.000000L88.000000 25.000000L88.000000 24.000000L84.000000 24.000000Z" style="stroke:rgb(0.000000%,0.000000%,0.000000%); stroke-width: 1.992523;stroke-linecap: round;stroke-linejoin: round;stroke-miterlimit: 10.000000;fill: none;"></path>
  <path d="M94.000000 25.000000L98.000000 25.000000L98.000000 24.000000L94.000000 24.000000Z" style="stroke:rgb(0.000000%,0.000000%,0.000000%); stroke-width: 1.992523;stroke-linecap: round;stroke-linejoin: round;stroke-miterlimit: 10.000000;fill: none;"></path>
  <path d="M104.000000 25.000000L108.000000 25.000000L108.000000 24.000000L104.000000 24.000000Z" style="stroke:rgb(0.000000%,0.000000%,0.000000%); stroke-width: 1.992523;stroke-linecap: round;stroke-linejoin: round;stroke-miterlimit: 10.000000;fill: none;"></path>
  <path d="M114.000000 25.000000L118.000000 25.000000L118.000000 24.000000L114.000000 24.000000Z" style="stroke:rgb(0.000000%,0.000000%,0.000000%); stroke-width: 1.992523;stroke-linecap: round;stroke-linejoin: round;stroke-miterlimit: 10.000000;fill: none;"></path>
  <path d="M74.000000 18.000000L78.000000 18.000000L78.000000 17.000000L74.000000 17.000000Z" style="stroke:rgb(0.000000%,0.000000%,0.000000%); stroke-width: 1.992523;stroke-linecap: round;stroke-linejoin: round;stroke-miterlimit: 10.000000;fill: none;"></path>
  <path d="M84.000000 18.000000L88.000000 18.000000L88.000000 17.000000L84.000000 17.000000Z" style="stroke:rgb(0.000000%,0.000000%,0.000000%); stroke-width: 1.992523;stroke-linecap: round;stroke-linejoin: round;stroke-miterlimit: 10.000000;fill: none;"></path>
  <path d="M94.000000 18.000000L98.000000 18.000000L98.000000 17.000000L94.000000 17.000000Z" style="stroke:rgb(0.000000%,0.000000%,0.000000%); stroke-width: 1.992523;stroke-linecap: round;stroke-linejoin: round;stroke-miterlimit: 10.000000;fill: none;"></path>
  <path d="M104.000000 18.000000L108.000000 18.000000L108.000000 17.000000L104.000000 17.000000Z" style="stroke:rgb(0.000000%,0.000000%,0.000000%); stroke-width: 1.992523;stroke-linecap: round;stroke-linejoin: round;stroke-miterlimit: 10.000000;fill: none;"></path>
  <path d="M114.000000 18.000000L118.000000 18.000000L118.000000 17.000000L114.000000 17.000000Z" style="stroke:rgb(0.000000%,0.000000%,0.000000%); stroke-width: 1.992523;stroke-linecap: round;stroke-linejoin: round;stroke-miterlimit: 10.000000;fill: none;"></path>
  <path d="M74.000000 11.000000L78.000000 11.000000L78.000000 10.000000L74.000000 10.000000Z" style="stroke:rgb(0.000000%,0.000000%,0.000000%); stroke-width: 1.992523;stroke-linecap: round;stroke-linejoin: round;stroke-miterlimit: 10.000000;fill: none;"></path>
  <path d="M84.000000 11.000000L88.000000 11.000000L88.000000 10.000000L84.000000 10.000000Z" style="stroke:rgb(0.000000%,0.000000%,0.000000%); stroke-width: 1.992523;stroke-linecap: round;stroke-linejoin: round;stroke-miterlimit: 10.000000;fill: none;"></path>
  <path d="M94.000000 11.000000L98.000000 11.000000L98.000000 10.000000L94.000000 10.000000Z" style="stroke:rgb(0.000000%,0.000000%,0.000000%); stroke-width: 1.992523;stroke-linecap: round;stroke-linejoin: round;stroke-miterlimit: 10.000000;fill: none;"></path>
  <path d="M104.000000 11.000000L108.000000 11.000000L108.000000 10.000000L104.000000 10.000000Z" style="stroke:rgb(0.000000%,0.000000%,0.000000%); stroke-width: 1.992523;stroke-linecap: round;stroke-linejoin: round;stroke-miterlimit: 10.000000;fill: none;"></path>
  <path d="M114.000000 11.000000L118.000000 11.000000L118.000000 10.000000L114.000000 10.000000Z" style="stroke:rgb(0.000000%,0.000000%,0.000000%); stroke-width: 1.992523;stroke-linecap: round;stroke-linejoin: round;stroke-miterlimit: 10.000000;fill: none;"></path>
  <path d="M155.000000 -0.000000L155.000000 22.000000C150.887360 22.000000,150.000000 27.211929,150.000000 32.000000L170.000000 32.000000C170.000000 27.211929,169.112640 22.000000,165.000000 22.000000L165.000000 -0.000000" style="stroke:rgb(0.000000%,0.000000%,0.000000%); stroke-width: 1.992523;stroke-linecap: round;stroke-linejoin: round;stroke-miterlimit: 10.000000;fill: none;"></path>
  <path d="M160.000000 32.000000L160.000000 42.000000" style="stroke:rgb(0.000000%,0.000000%,0.000000%); stroke-width: 1.992523;stroke-linecap: round;stroke-linejoin: round;stroke-miterlimit: 10.000000;fill: none;"></path>
  <path d="M157.000000 32.000000L157.000000 42.000000" style="stroke:rgb(0.000000%,0.000000%,0.000000%); stroke-width: 1.992523;stroke-linecap: round;stroke-linejoin: round;stroke-miterlimit: 10.000000;fill: none;"></path>
  <path d="M154.000000 32.000000L154.000000 42.000000" style="stroke:rgb(0.000000%,0.000000%,0.000000%); stroke-width: 1.992523;stroke-linecap: round;stroke-linejoin: round;stroke-miterlimit: 10.000000;fill: none;"></path>
  <path d="M163.000000 32.000000L163.000000 42.000000" style="stroke:rgb(0.000000%,0.000000%,0.000000%); stroke-width: 1.992523;stroke-linecap: round;stroke-linejoin: round;stroke-miterlimit: 10.000000;fill: none;"></path>
  <path d="M166.000000 32.000000L166.000000 42.000000" style="stroke:rgb(0.000000%,0.000000%,0.000000%); stroke-width: 1.992523;stroke-linecap: round;stroke-linejoin: round;stroke-miterlimit: 10.000000;fill: none;"></path>
  <path d="M219.000000 -0.000000L219.000000 22.000000C214.887360 22.000000,214.000000 27.211929,214.000000 32.000000L234.000000 32.000000C234.000000 27.211929,233.112640 22.000000,229.000000 22.000000L229.000000 -0.000000" style="stroke:rgb(0.000000%,0.000000%,0.000000%); stroke-width: 1.992523;stroke-linecap: round;stroke-linejoin: round;stroke-miterlimit: 10.000000;fill: none;"></path>
  <path d="M217.000000 64.000000L217.000000 42.000000C212.947586 42.000000,214.000000 36.504669,214.000000 32.000000" style="stroke:rgb(0.000000%,0.000000%,0.000000%); stroke-width: 1.992523;stroke-linecap: round;stroke-linejoin: round;stroke-miterlimit: 10.000000;fill: none;"></path>
  <path d="M231.000000 64.000000L231.000000 42.000000C235.052414 42.000000,234.000000 36.504669,234.000000 32.000000" style="stroke:rgb(0.000000%,0.000000%,0.000000%); stroke-width: 1.992523;stroke-linecap: round;stroke-linejoin: round;stroke-miterlimit: 10.000000;fill: none;"></path>
  <path d="M288.000000 10.000000C275.849731 10.000000,266.000000 19.849731,266.000000 32.000000C266.000000 44.150269,275.849731 54.000000,288.000000 54.000000C300.150269 54.000000,310.000000 44.150269,310.000000 32.000000C310.000000 19.849731,300.150269 10.000000,288.000000 10.000000Z" style="stroke:rgb(0.000000%,0.000000%,0.000000%); stroke-width: 1.992523;stroke-linecap: round;stroke-linejoin: round;stroke-miterlimit: 10.000000;fill: none;"></path>
  <path d="M290.500000 5.000000L285.500000 10.000000L290.500000 15.000000" style="stroke:rgb(0.000000%,0.000000%,0.000000%); stroke-width: 1.992523;stroke-linecap: round;stroke-linejoin: round;stroke-miterlimit: 10.000000;fill: none;"></path>
  <path d="M285.500000 49.000000L290.500000 54.000000L285.500000 59.000000" style="stroke:rgb(0.000000%,0.000000%,0.000000%); stroke-width: 1.992523;stroke-linecap: round;stroke-linejoin: round;stroke-miterlimit: 10.000000;fill: none;"></path>
  <path d="M0.000000 64.000000L320.000000 -0.000000" style="stroke:rgb(0.000000%,0.000000%,0.000000%); stroke-width: 0.000000;stroke-linecap: round;stroke-linejoin: round;stroke-miterlimit: 10.000000;fill: none;"></path>
  <path d="M0.000000 64.000000L0.000000 -0.000000" style="stroke:rgb(0.000000%,0.000000%,0.000000%); stroke-width: 0.099625;stroke-linecap: round;stroke-linejoin: round;stroke-miterlimit: 10.000000;fill: none;"></path>
  <path d="M64.000000 64.000000L64.000000 -0.000000" style="stroke:rgb(0.000000%,0.000000%,0.000000%); stroke-width: 0.099625;stroke-linecap: round;stroke-linejoin: round;stroke-miterlimit: 10.000000;fill: none;"></path>
  <path d="M128.000000 64.000000L128.000000 -0.000000" style="stroke:rgb(0.000000%,0.000000%,0.000000%); stroke-width: 0.099625;stroke-linecap: round;stroke-linejoin: round;stroke-miterlimit: 10.000000;fill: none;"></path>
  <path d="M192.000000 64.000000L192.000000 -0.000000" style="stroke:rgb(0.000000%,0.000000%,0.000000%); stroke-width: 0.099625;stroke-linecap: round;stroke-linejoin: round;stroke-miterlimit: 10.000000;fill: none;"></path>
  <path d="M256.000000 64.000000L256.000000 -0.000000" style="stroke:rgb(0.000000%,0.000000%,0.000000%); stroke-width: 0.099625;stroke-linecap: round;stroke-linejoin: round;stroke-miterlimit: 10.000000;fill: none;"></path>
  <path d="M320.000000 64.000000L320.000000 -0.000000" style="stroke:rgb(0.000000%,0.000000%,0.000000%); stroke-width: 0.099625;stroke-linecap: round;stroke-linejoin: round;stroke-miterlimit: 10.000000;fill: none;"></path>
  <path d="M0.000000 64.000000L320.000000 64.000000" style="stroke:rgb(0.000000%,0.000000%,0.000000%); stroke-width: 0.099625;stroke-linecap: round;stroke-linejoin: round;stroke-miterlimit: 10.000000;fill: none;"></path>
  <path d="M0.000000 -0.000000L320.000000 -0.000000" style="stroke:rgb(0.000000%,0.000000%,0.000000%); stroke-width: 0.099625;stroke-linecap: round;stroke-linejoin: round;stroke-miterlimit: 10.000000;fill: none;"></path>
</svg>
